<?xml version="1.0"?>
<svg width="256" height="256" xmlns="http://www.w3.org/2000/svg" xmlns:svg="http://www.w3.org/2000/svg" version="1.1" xml:space="preserve">

 <g class="layer">
  <title>Layer 1</title>
  <g id="SVGRepo_bgCarrier" stroke-width="0"/>
  <g id="SVGRepo_tracerCarrier" stroke-linecap="round" stroke-linejoin="round"/>
  <g id="SVGRepo_iconCarrier" transform="matrix(1, 0, 0, 1, 0, 0)">
   <style type="text/css">.st0{fill:#454545;} .st1{fill:#fefeff;}</style>
   <path class="st0" d="m126.09,88.64c-2.81,-1.67 -6.75,-3.61 -11.7,-5.76c-9.07,-3.94 -20.4,-8.1 -29.55,-10.83c-6.13,-1.84 -10.23,-2.71 -13.3,-2.84l-0.76,-0.03c-0.43,-0.59 -0.91,-1.16 -1.44,-1.69c-0.53,-0.52 -1.11,-0.98 -1.71,-1.4l-0.05,-0.72c-0.2,-3 -1.06,-7 -2.79,-12.93c-2.61,-8.98 -6.56,-20.14 -10.32,-29.15c-6.29,-15.08 -9.6,-19.44 -14.79,-19.44c-0.67,0 -1.34,0.1 -1.98,0.29c-5.99,1.77 -5.66,8.79 -5.52,11.79c0.15,3.25 0.69,7.59 1.59,12.89c1.66,9.73 4.35,21.48 7.02,30.64c2.01,6.9 3.61,10.99 5.38,13.67l0.49,0.74l-0.62,0.33c-2.79,1.49 -6.12,4.15 -11.16,8.91c-6.43,6.09 -14.25,14.33 -20.41,21.53c-11.08,12.97 -12.08,16.7 -12.15,19.41c-0.05,1.98 0.64,3.84 1.96,5.22c1.36,1.43 3.24,2.22 5.31,2.22c0.01,0 0.03,0 0.04,0c2,0 5.41,-0.09 19.88,-11.12c4.92,-3.74 10.32,-8.17 15.26,-12.48l-3.46,58.8l33.8,0l-4.26,-72.36c1.89,0.7 4.11,1.43 6.73,2.21c14.23,4.26 35.81,8.82 45.25,8.82c0.01,0 0.01,0 0.01,0c5.6,0 8.99,-1.89 10.09,-5.62c1.77,-5.98 -4.47,-9.69 -6.82,-11.09z" id="svg_1"/>
   <g id="svg_2">
    <circle class="st1" cx="59.98" cy="77.08" id="svg_3" r="6.97"/>
    <path class="st1" d="m51.52,69.6c2.07,-2.36 5.11,-3.87 8.51,-3.87c0.38,0 0.76,0.03 1.13,0.06c-0.16,-2.32 -0.87,-5.8 -2.55,-11.56c-5.12,-17.6 -15.9,-44.88 -19.11,-43.93c-3.22,0.95 2.32,29.78 7.44,47.38c1.95,6.68 3.33,10.03 4.58,11.93z" id="svg_4"/>
    <path class="st1" d="m55.86,87.62c-3.35,-1.33 -5.91,-4.21 -6.81,-7.75c-2.04,1.09 -4.92,3.33 -9.78,7.92c-13.32,12.59 -32.68,34.63 -30.37,37.06c2.32,2.43 25.44,-15.66 38.76,-28.25c4.61,-4.35 6.97,-7.03 8.2,-8.98z" id="svg_5"/>
    <path class="st1" d="m83,78.2c-5.94,-1.78 -9.42,-2.48 -11.73,-2.57c0.06,0.48 0.1,0.96 0.1,1.46c0,3.43 -1.53,6.5 -3.94,8.58c1.91,1.29 5.3,2.73 11.99,4.73c17.56,5.25 46.35,10.9 47.34,7.53c1,-3.37 -26.2,-14.47 -43.76,-19.72z" id="svg_6"/>
    <path class="st1" d="m60.88,88l-1.78,2.81c-1.41,2.22 -3.72,4.88 -7.41,8.46l-3.58,61.01l20.18,0l-4.3,-73.22c-0.99,0.43 -2.03,0.75 -3.11,0.95z" id="svg_7"/>
   </g>
  </g>
  <g id="svg_8">
   <style type="text/css">.st0{fill:#454545;} .st1{fill:#fefeff;}</style>
   <path class="st0" d="m243.84,97.78c-3.2,-1.9 -7.68,-4.1 -13.31,-6.55c-10.32,-4.48 -23.2,-9.21 -33.62,-12.32c-6.97,-2.09 -11.64,-3.08 -15.13,-3.23l-0.87,-0.04c-0.49,-0.67 -1.03,-1.32 -1.64,-1.92c-0.61,-0.59 -1.26,-1.12 -1.95,-1.59l-0.06,-0.82c-0.23,-3.42 -1.2,-7.96 -3.17,-14.71c-2.97,-10.21 -7.46,-22.91 -11.74,-33.16c-7.15,-17.15 -10.93,-22.11 -16.83,-22.11c-0.77,0 -1.53,0.11 -2.26,0.33c-6.81,2.01 -6.43,10 -6.27,13.41c0.18,3.7 0.79,8.63 1.81,14.66c1.89,11.07 4.95,24.43 7.98,34.86c2.29,7.85 4.11,12.5 6.12,15.55l0.56,0.85l-0.7,0.37c-3.17,1.69 -6.97,4.73 -12.7,10.14c-7.32,6.92 -16.21,16.3 -23.22,24.49c-12.6,14.75 -13.74,19 -13.82,22.08c-0.06,2.26 0.73,4.37 2.23,5.94c1.55,1.62 3.69,2.52 6.04,2.52c0.01,0 0.04,0 0.05,0c2.28,0 6.16,-0.1 22.62,-12.65c5.59,-4.26 11.74,-9.3 17.36,-14.2l-3.94,66.89l38.45,0l-4.84,-82.3c2.15,0.8 4.67,1.62 7.65,2.51c16.18,4.84 40.74,10.03 51.47,10.03c0.01,0 0.01,0 0.01,0c6.37,0 10.23,-2.15 11.47,-6.4c2.01,-6.81 -5.09,-11.03 -7.76,-12.62z" id="svg_9"/>
   <g id="svg_10">
    <circle class="st1" cx="168.65" cy="84.64" id="svg_11" r="7.93"/>
    <path class="st1" d="m159.03,76.13c2.36,-2.69 5.81,-4.4 9.68,-4.4c0.43,0 0.86,0.03 1.29,0.07c-0.18,-2.64 -0.99,-6.6 -2.9,-13.15c-5.83,-20.02 -18.08,-51.06 -21.74,-49.97c-3.67,1.08 2.64,33.87 8.46,53.89c2.21,7.6 3.79,11.41 5.21,13.57z" id="svg_12"/>
    <path class="st1" d="m163.96,96.62c-3.81,-1.51 -6.73,-4.78 -7.75,-8.81c-2.32,1.24 -5.6,3.79 -11.12,9c-15.15,14.32 -37.17,39.39 -34.54,42.15c2.64,2.77 28.93,-17.81 44.09,-32.13c5.24,-4.95 7.92,-8 9.33,-10.21z" id="svg_13"/>
    <path class="st1" d="m194.82,85.91c-6.76,-2.02 -10.72,-2.82 -13.34,-2.93c0.07,0.54 0.12,1.1 0.12,1.66c0,3.91 -1.74,7.4 -4.48,9.76c2.18,1.47 6.03,3.1 13.63,5.37c19.97,5.97 52.73,12.39 53.85,8.57c1.13,-3.83 -29.8,-16.46 -49.78,-22.43z" id="svg_14"/>
    <path class="st1" d="m169.67,97.05l-2.02,3.19c-1.6,2.53 -4.24,5.55 -8.43,9.62l-4.08,69.39l22.95,0l-4.89,-83.28c-1.12,0.49 -2.31,0.85 -3.53,1.08z" id="svg_15"/>
   </g>
  </g>
  <g id="svg_17">
   <style type="text/css">.st0{fill:#454545;} .st1{fill:#fefeff;}</style>
   <path class="st0" d="m194.25,159.82c-3.43,-2.04 -8.24,-4.41 -14.29,-7.03c-11.08,-4.82 -24.92,-9.89 -36.1,-13.23c-7.49,-2.24 -12.5,-3.31 -16.25,-3.47l-0.93,-0.04c-0.53,-0.72 -1.11,-1.42 -1.76,-2.06c-0.65,-0.64 -1.36,-1.2 -2.09,-1.71l-0.06,-0.88c-0.24,-3.67 -1.29,-8.55 -3.4,-15.79c-3.19,-10.96 -8.01,-24.6 -12.6,-35.6c-7.68,-18.42 -11.73,-23.75 -18.07,-23.75c-0.82,0 -1.64,0.12 -2.42,0.35c-7.32,2.16 -6.91,10.74 -6.74,14.4c0.19,3.97 0.85,9.27 1.94,15.75c2.03,11.89 5.32,26.23 8.57,37.43c2.45,8.43 4.42,13.42 6.57,16.7l0.6,0.91l-0.75,0.4c-3.4,1.82 -7.48,5.07 -13.64,10.89c-7.86,7.43 -17.41,17.5 -24.93,26.3c-13.54,15.84 -14.76,20.4 -14.85,23.71c-0.06,2.42 0.78,4.69 2.39,6.38c1.66,1.74 3.96,2.71 6.49,2.71c0.02,0 0.04,0 0.05,0c2.45,0 6.61,-0.11 24.29,-13.58c6.01,-4.57 12.6,-9.98 18.64,-15.25l-4.23,71.83l41.29,0l-5.2,-88.38c2.31,0.85 5.02,1.74 8.22,2.7c17.38,5.2 43.74,10.77 55.27,10.77c0.01,0 0.01,0 0.01,0c6.84,0 10.99,-2.31 12.32,-6.87c2.16,-7.31 -5.47,-11.84 -8.34,-13.55z" id="svg_18"/>
   <g id="svg_19">
    <circle class="st1" cx="113.5" cy="145.7" id="svg_20" r="8.51"/>
    <path class="st1" d="m103.17,136.56c2.53,-2.89 6.24,-4.72 10.39,-4.72c0.46,0 0.93,0.03 1.38,0.07c-0.2,-2.84 -1.07,-7.09 -3.11,-14.12c-6.26,-21.5 -19.42,-54.83 -23.35,-53.67c-3.94,1.16 2.84,36.37 9.09,57.87c2.38,8.16 4.07,12.25 5.6,14.57z" id="svg_21"/>
    <path class="st1" d="m108.47,158.57c-4.09,-1.62 -7.22,-5.14 -8.32,-9.47c-2.49,1.33 -6.02,4.07 -11.94,9.67c-16.27,15.38 -39.92,42.3 -37.09,45.27c2.83,2.97 31.07,-19.13 47.34,-34.51c5.63,-5.32 8.51,-8.59 10.01,-10.96z" id="svg_22"/>
    <path class="st1" d="m141.61,147.06c-7.25,-2.17 -11.51,-3.03 -14.33,-3.14c0.08,0.58 0.13,1.18 0.13,1.78c0,4.2 -1.87,7.94 -4.82,10.49c2.34,1.58 6.48,3.33 14.64,5.77c21.45,6.42 56.62,13.31 57.83,9.2c1.22,-4.12 -32,-17.68 -53.45,-24.09z" id="svg_23"/>
    <path class="st1" d="m114.59,159.03l-2.17,3.43c-1.72,2.71 -4.55,5.96 -9.05,10.33l-4.38,74.52l24.65,0l-5.25,-89.43c-1.21,0.53 -2.48,0.92 -3.8,1.16z" id="svg_24"/>
   </g>
  </g>
 </g>
</svg>